<svg width="120" height="120" viewBox="0 0 120 120" fill="none" xmlns="http://www.w3.org/2000/svg">
  <rect x="5" y="5" width="110" height="110" rx="24" fill="url(#paint0_linear_1_1)" />
  <rect x="25" y="25" width="70" height="70" rx="18" fill="white" fill-opacity="0.9" />
  <path d="M41 60c0-10.493 8.507-19 19-19s19 8.507 19 19-8.507 19-19 19-19-8.507-19-19Z" stroke="#1D4ED8" stroke-width="6" stroke-linecap="round" stroke-linejoin="round" />
  <path d="M60 51c-4.971 0-9 4.029-9 9s4.029 9 9 9 9-4.029 9-9" stroke="#0F172A" stroke-width="6" stroke-linecap="round" />
  <path d="M72 45v-6" stroke="#1D4ED8" stroke-width="6" stroke-linecap="round" />
  <path d="M48 45v-6" stroke="#1D4ED8" stroke-width="6" stroke-linecap="round" />
  <path d="M85 72h6" stroke="#1D4ED8" stroke-width="6" stroke-linecap="round" />
  <path d="M29 72h6" stroke="#1D4ED8" stroke-width="6" stroke-linecap="round" />
  <defs>
    <linearGradient id="paint0_linear_1_1" x1="5" y1="5" x2="115" y2="115" gradientUnits="userSpaceOnUse">
      <stop stop-color="#1D4ED8" />
      <stop offset="1" stop-color="#0EA5E9" />
    </linearGradient>
  </defs>
</svg>
