<svg xmlns="http://www.w3.org/2000/svg" viewBox="0 0 64 64" role="img" aria-labelledby="title desc">
  <title id="title">Ícone ComprasGov.AI</title>
  <desc id="desc">Seta estilizada com nós representando tecnologia em um fundo azul.</desc>
  <rect width="64" height="64" rx="14" fill="#0D63C6" />
  <path
    fill="#FFFFFF"
    d="M16.5 38.8c0.3 0.3 0.7 0.5 1.1 0.6l9.6 2.2 2.3 9.6c0.1 0.4 0.3 0.8 0.6 1.1 1 1 2.6 1 3.5 0l20.4-34.1-34.1 20.4c-1.1 0.7-1.4 2.2-0.5 3.2z"
  />
  <path
    fill="#FFFFFF"
    d="M22.9 23.4a4.1 4.1 0 1 0-5.7 5.7 4.1 4.1 0 0 0 5.7-5.7zm-5.4 5.4a2.7 2.7 0 1 1 3.8-3.8 2.7 2.7 0 0 1-3.8 3.8z"
  />
  <path
    fill="#FFFFFF"
    d="M27.6 27.4a3.2 3.2 0 1 0-4.5 4.5 3.2 3.2 0 0 0 4.5-4.5zm-4.2 4.2a1.8 1.8 0 1 1 2.5-2.5 1.8 1.8 0 0 1-2.5 2.5z"
  />
  <path
    fill="#FFFFFF"
    d="M32.5 31.4a2.7 2.7 0 1 0-3.8 3.8 2.7 2.7 0 0 0 3.8-3.8zm-3.5 3.5a1.3 1.3 0 1 1 1.9-1.9 1.3 1.3 0 0 1-1.9 1.9z"
  />
  <path
    fill="#FFFFFF"
    d="M18.1 27.5a1 1 0 0 0 0.7-0.3l2.2-2.2a1 1 0 0 0-1.4-1.4l-2.2 2.2a1 1 0 0 0 0.7 1.7z"
  />
  <path
    fill="#FFFFFF"
    d="M22.8 31.5a1 1 0 0 0 0.7-0.3l2.2-2.2a1 1 0 0 0-1.4-1.4l-2.2 2.2a1 1 0 0 0 0.7 1.7z"
  />
  <path
    fill="#FFFFFF"
    d="M27.5 35.5a1 1 0 0 0 0.7-0.3l2.2-2.2a1 1 0 0 0-1.4-1.4l-2.2 2.2a1 1 0 0 0 0.7 1.7z"
  />
</svg>
