<svg xmlns="http://www.w3.org/2000/svg" viewBox="0 0 520 160" role="img" aria-labelledby="title desc">
  <title id="title">Logo ComprasGov.AI - NEXORA</title>
  <desc id="desc">Logo com ícone azul e texto ComprasGov.AI NEXORA.</desc>
  <g>
    <rect width="128" height="128" rx="28" x="8" y="16" fill="#0D63C6" />
    <path
      fill="#FFFFFF"
      d="M47.2 99.5c0.5 0.5 1.1 0.8 1.8 1l15.4 3.6 3.7 15.5c0.2 0.6 0.5 1.2 1 1.7 1.6 1.6 4.2 1.6 5.8-0.1l32.5-54.4L52.9 99.4c-1.7 1.1-2.2 3.4-1.1 5.1z"
    />
    <path
      fill="#FFFFFF"
      d="M58.5 52a6.5 6.5 0 1 0-9.2 9.2 6.5 6.5 0 0 0 9.2-9.2zm-8.7 8.7a4.3 4.3 0 1 1 6.1-6.1 4.3 4.3 0 0 1-6.1 6.1z"
    />
    <path
      fill="#FFFFFF"
      d="M65.8 58.4a5.1 5.1 0 1 0-7.2 7.2 5.1 5.1 0 0 0 7.2-7.2zm-6.7 6.7a3.3 3.3 0 1 1 4.7-4.7 3.3 3.3 0 0 1-4.7 4.7z"
    />
    <path
      fill="#FFFFFF"
      d="M73.6 64.4a4.3 4.3 0 1 0-6.1 6.1 4.3 4.3 0 0 0 6.1-6.1zm-5.6 5.6a2.5 2.5 0 1 1 3.6-3.6 2.5 2.5 0 0 1-3.6 3.6z"
    />
    <path
      fill="#FFFFFF"
      d="M50.9 58.8a1.5 1.5 0 0 0 1.1-0.4l3.5-3.5a1.5 1.5 0 0 0-2.1-2.1L49.9 56a1.5 1.5 0 0 0 1 2.8z"
    />
    <path
      fill="#FFFFFF"
      d="M58.3 64.8a1.5 1.5 0 0 0 1.1-0.4l3.5-3.5a1.5 1.5 0 0 0-2.1-2.1l-3.5 3.5a1.5 1.5 0 0 0 1 2.5z"
    />
    <path
      fill="#FFFFFF"
      d="M65.8 70.8a1.5 1.5 0 0 0 1.1-0.4l3.5-3.5a1.5 1.5 0 0 0-2.1-2.1l-3.5 3.5a1.5 1.5 0 0 0 1 2.5z"
    />
  </g>
  <g font-family="'Inter', 'Segoe UI', 'Helvetica Neue', Arial, sans-serif" font-weight="600" fill="#0B1C2C">
    <text font-size="44" x="160" y="78">Compras</text>
    <text font-size="44" x="160" y="122">Gov.AI</text>
    <text font-size="28" x="160" y="150" letter-spacing="14" fill="#0D63C6">NEXORA</text>
  </g>
</svg>
